<svg width="2059" height="695" viewBox="0 0 2059 695" fill="none" xmlns="http://www.w3.org/2000/svg">
<rect width="2059" height="695" />
<path d="M158.516 359.18C161.27 361.552 165.325 364.842 171.522 366.066C179.249 367.596 185.676 364.995 188.354 363.771C192.714 369.05 206.486 384.198 229.667 389.018C246.652 392.614 260.423 388.865 264.861 387.488C269.145 386.187 281.004 382.056 292.021 371.804C307.322 357.574 318.951 333.55 314.59 307.156C310 279.23 290.031 263.776 285.517 260.486C286.895 259.262 288.807 257.426 290.873 255.131C292.327 253.448 299.136 245.644 303.879 232.944C305.256 229.271 307.857 222.08 308.47 212.287C309.541 195.226 303.65 182.296 300.819 176.329C298.141 170.667 295.31 166.23 293.168 163.322C285.747 165.235 275.342 168.295 263.33 173.268C248.412 179.465 221.099 192.701 194.474 218.407C185.676 226.9 177.413 235.009 169.227 248.245C159.204 264.465 154.614 279.843 152.395 290.324C149.794 292.696 145.739 296.904 143.214 303.33C140.154 311.057 140.919 317.79 141.684 323.987C142.449 329.802 144.668 347.398 158.516 359.18Z" fill="url(#paint0_radial)"/>
<path d="M485.966 208.461C452.379 180.23 417.722 168.448 396.453 163.322C355.292 153.376 320.787 157.661 301.966 161.41C310.459 172.58 313.825 183.061 315.355 189.335C321.782 216.189 310.918 238.223 307.704 244.42C303.879 251.841 299.671 257.349 296.611 260.869C300.972 264.618 306.939 270.509 312.295 278.848C314.973 283.056 320.328 291.548 323.006 304.095C325.76 316.948 324.306 327.736 323.006 333.933C320.864 343.955 317.038 351.683 313.825 356.885C318.874 356.043 326.296 355.125 335.247 355.355C362.483 356.043 382.681 366.448 391.097 371.421C396.529 374.635 408.923 382.515 420.935 396.669C432.258 409.904 438.072 422.681 440.827 429.567C443.887 437.217 449.931 454.737 449.242 477.001C449.013 483.428 447.1 523.747 415.579 555.803C412.825 558.634 401.043 570.263 381.916 579.52C361.565 589.39 342.974 591.608 331.804 592.144C339.761 592.68 349.63 592.909 360.877 592.144C367.074 591.685 379.698 590.537 395.305 586.789C405.939 584.264 426.902 578.296 450.773 564.984C469.44 554.579 482.982 543.486 491.321 535.911C499.201 528.796 510.984 517.091 522.689 500.718C531.64 488.248 537.378 477.46 540.286 471.646C546.33 459.557 550.461 448.464 553.292 439.513C555.281 433.239 558.647 421.304 560.943 405.85C561.402 402.713 563.008 391.16 563.238 377.542C563.773 344.185 555.511 316.413 553.292 309.451C535.007 250.999 495.147 216.189 485.966 208.461Z" fill="url(#paint1_radial)"/>
<path d="M593.841 227.588C587.72 206.243 569.511 189.947 546.789 185.127C547.324 174.569 546.483 156.437 534.93 141.135C515.038 114.74 471.123 106.707 428.586 125.834C421.317 110.762 411.754 105.942 407.929 104.412C386.66 95.7667 354.527 110.609 334.482 144.961C358.352 144.196 396.07 146.338 437.001 164.087C463.932 175.793 482.829 190.1 492.086 197.751C502.415 206.319 523.378 225.14 541.816 255.131C551.915 271.58 558.341 286.652 562.473 297.975C567.828 295.22 577.162 289.482 584.66 278.848C586.496 276.17 601.491 254.289 593.841 227.588Z" fill="url(#paint2_radial)"/>
<path d="M368.527 476.619C372.2 479.373 384.288 487.789 401.425 487.329C423.842 486.717 437.46 471.569 439.679 468.968C439.449 463 438.608 454.431 435.854 444.486C424.99 405.544 395.075 385.346 390.715 382.515C386.43 379.684 361.718 364 327.979 364.918C321.705 365.071 316.426 365.76 312.677 366.448C318.874 367.673 327.979 370.197 337.542 376.012C365.238 392.767 372.429 421.763 373.5 426.506C378.091 446.245 373.653 462.312 372.735 465.525C371.358 470.115 369.752 473.941 368.527 476.619Z" fill="url(#paint3_radial)"/>
<path d="M247.264 533.616C237.701 508.139 243.056 485.876 244.969 478.531C246.805 471.416 249.177 465.678 251.089 461.7C248.871 460.17 215.514 437.753 181.85 452.901C166.549 459.787 157.827 471.493 153.925 477.766C167.008 501.942 182.003 519.003 192.944 529.791C224.082 560.394 257.669 574.93 278.632 581.816C295.387 587.324 310.306 589.925 321.705 591.302C312.754 590.155 299.442 587.095 285.517 578.755C279.397 575.083 257.745 561.618 247.264 533.616Z" fill="url(#paint4_radial)"/>
<path d="M246.499 356.503C267.837 356.503 285.135 339.205 285.135 317.866C285.135 296.528 267.837 279.23 246.499 279.23C225.161 279.23 207.863 296.528 207.863 317.866C207.863 339.205 225.161 356.503 246.499 356.503Z" fill="white" stroke="white" stroke-miterlimit="10" stroke-linejoin="round"/>
<path d="M246.499 339.824C258.626 339.824 268.456 329.993 268.456 317.866C268.456 305.74 258.626 295.909 246.499 295.909C234.372 295.909 224.541 305.74 224.541 317.866C224.541 329.993 234.372 339.824 246.499 339.824Z" fill="url(#paint5_linear)"/>
<path d="M258.357 306.773C257.669 306.008 252.237 300.117 244.127 300.729C239.231 301.111 233.263 303.789 231.044 309.068C230.662 309.91 228.749 314.959 231.58 318.249C233.493 320.468 236.4 320.544 236.936 320.544C239.613 320.544 242.138 319.167 243.439 317.178C245.198 314.347 243.439 312.128 244.586 309.833C245.581 307.844 248.718 306.008 258.357 306.773Z" fill="white"/>
<path d="M356.286 230.266C370.134 248.475 407.24 216.265 448.86 234.856C477.244 247.557 486.807 274.41 507.005 270.815C516.645 269.055 523.378 261.404 527.433 255.437C510.142 229.348 491.857 213.358 485.966 208.461C452.379 180.23 417.722 168.448 396.453 163.322C381.763 159.803 367.992 158.043 355.445 157.431C355.292 159.497 355.062 162.787 354.756 166.765C352.385 204.56 351.161 223.533 356.286 230.266Z" fill="url(#paint6_linear)"/>
<path d="M424.378 354.207C422.847 350.611 416.344 336.917 402.191 328.96C390.638 322.457 384.135 325.364 369.293 321.309C345.193 314.653 342.898 299.734 328.744 298.357C326.372 298.128 323.924 298.128 321.476 298.281C322.011 300.117 322.547 302.03 323.006 304.095C325.76 316.948 324.306 327.736 323.006 333.933C320.864 343.955 317.038 351.683 313.825 356.885C318.874 356.043 326.296 355.125 335.247 355.355C362.483 356.043 382.681 366.448 391.097 371.421C396.529 374.635 408.923 382.515 420.935 396.669C422.006 397.893 423 399.117 423.919 400.341C429.58 385.116 430.575 368.514 424.378 354.207Z" fill="url(#paint7_linear)"/>
<path d="M540.286 471.646C546.33 459.557 550.461 448.464 553.292 439.513C555.281 433.239 558.647 421.304 560.943 405.85C561.402 402.713 563.008 391.16 563.238 377.542C563.773 344.185 555.511 316.413 553.292 309.451C553.215 309.221 553.139 308.992 553.062 308.762C550.155 319.32 545.488 329.649 538.373 338.906C516.263 367.596 483.671 369.662 481.758 390.166C479.922 410.44 510.678 417.938 521.542 447.546C529.651 469.809 522.613 493.756 512.973 513.265C516.186 509.44 519.399 505.232 522.689 500.718C531.564 488.171 537.302 477.46 540.286 471.646Z" fill="url(#paint8_linear)"/>
<path d="M467.987 545.475C466.992 540.425 463.473 534.075 458.041 531.704C447.253 526.96 435.242 540.272 417.875 553.432C417.11 554.197 416.344 555.038 415.579 555.803C412.825 558.634 401.043 570.263 381.916 579.52C361.565 589.39 342.974 591.609 331.804 592.144C339.761 592.68 349.63 592.909 360.877 592.144C367.074 591.685 379.698 590.537 395.305 586.789C405.939 584.264 426.902 578.296 450.773 564.984C456.664 561.694 462.096 558.328 466.992 555.038C468.14 552.131 468.675 549.071 467.987 545.475Z" fill="url(#paint9_linear)"/>
<path d="M208.934 361.475C204.114 365.301 200.289 370.121 198.223 375.4C197.917 376.088 197.687 376.7 197.534 377.389C197.305 378.001 197.075 378.919 196.846 379.684C196.463 381.214 196.081 382.591 195.851 383.969C195.392 386.723 195.545 389.324 196.31 391.619C197.075 393.914 198.606 395.98 200.748 397.74C204.191 400.418 208.092 401.489 208.934 401.718C212.071 402.483 214.442 402.407 218.344 402.254C222.629 402.101 224.618 401.489 230.509 401.336C231.58 401.336 232.575 401.336 233.493 401.336H236.476C238.466 401.336 240.531 401.412 242.597 401.642C246.728 401.948 250.936 402.56 254.915 403.784C258.97 405.008 262.795 406.997 265.932 409.522C268.992 412.123 271.44 415.183 272.894 418.626C273.659 420.386 274.118 422.146 274.271 423.982C274.5 425.818 274.347 427.578 274.041 429.337C273.735 431.097 273.2 432.857 272.435 434.463C271.593 436.146 270.446 437.676 268.915 438.977C268.533 439.283 268.15 439.589 267.691 439.895C267.309 440.201 266.85 440.431 266.391 440.66C265.473 441.119 264.478 441.425 263.483 441.655C261.494 442.114 259.352 442.19 257.363 441.884C254.532 441.502 252.543 440.431 251.778 439.972C249.024 438.365 247.647 436.376 247.723 436.299C247.8 436.223 249.177 438.212 252.007 439.589C252.696 439.895 254.685 440.813 257.439 440.966C259.352 441.043 261.188 440.813 262.948 440.278C263.789 439.972 264.631 439.666 265.396 439.207C265.779 438.977 266.161 438.748 266.467 438.518C266.773 438.289 267.156 437.982 267.385 437.676C269.757 435.381 270.675 432.168 270.905 428.955C271.134 425.741 270.522 422.681 268.992 419.927C267.462 417.173 265.167 414.724 262.412 412.812C259.658 410.976 256.445 409.598 253.002 408.91C246.116 407.38 238.542 407.839 230.891 408.527C225.459 408.986 225.459 409.675 219.798 410.21C213.83 410.822 210.464 411.129 205.95 410.363C199.83 409.292 195.469 406.768 193.327 405.391C191.414 404.09 189.578 402.636 188.048 400.877C186.517 399.193 185.217 397.281 184.299 395.215C182.386 391.16 181.927 386.876 182.08 382.974C182.157 380.985 182.386 379.072 182.692 377.312C182.845 376.394 182.922 375.629 183.151 374.635C183.304 373.64 183.61 372.722 183.84 371.727C186.058 364.077 190.572 357.038 196.693 351.224L196.769 351.147C199.906 348.163 205.262 347.934 208.704 350.612C212.224 353.289 212.453 357.88 209.393 360.863C209.316 361.169 209.087 361.322 208.934 361.475Z" fill="url(#paint10_linear)"/>
<path d="M676 263.719C676 173.854 748.792 102 837.719 102C927.583 102 1000 173.854 1000 263.719C1000 353.02 927.583 426 837.719 426C748.792 425.812 676 353.02 676 263.719ZM925.895 263.719C925.895 210.438 890.999 171.227 837.906 171.227C785.188 171.227 750.668 210.438 750.668 263.719C750.668 316.437 785.188 356.21 837.906 356.21C890.999 356.022 925.895 316.437 925.895 263.719Z" fill="#45239B"/>
<path d="M1027.95 176.481H1174.1V246.271H1103V419.434H1027.95V176.481Z" fill="#45239B"/>
<path d="M1189.3 176.481H1268.28L1311.81 311.559L1355.33 176.481H1434.69L1351.77 419.434H1271.47L1189.3 176.481Z" fill="#45239B"/>
<path d="M1436 298.051C1436 226.572 1484.03 169.914 1551.19 169.914C1588.72 169.914 1618.36 188.3 1631.87 214.002H1634.12V176.481H1706.91V419.434H1634.12V384.538H1631.87C1609.54 416.807 1584.4 426 1551.19 426C1484.03 425.812 1436 369.155 1436 298.051ZM1623.05 298.051C1623.05 263.531 1602.97 239.705 1568.45 239.705C1534.5 239.705 1515.74 263.719 1515.74 298.051C1515.74 332.008 1534.5 356.022 1568.45 356.022C1602.97 356.022 1623.05 332.196 1623.05 298.051Z" fill="#45239B"/>
<path d="M1763.19 108.003H1837.3V419.246H1763.19V108.003Z" fill="#45239B"/>
<path d="M700.817 561.216C702.92 561.216 704.746 560.953 706.295 560.428C707.872 559.902 709.159 559.182 710.155 558.269C711.178 557.329 711.939 556.222 712.437 554.949C712.935 553.677 713.184 552.28 713.184 550.758C713.184 547.715 712.174 545.377 710.155 543.744C708.163 542.112 705.105 541.296 700.983 541.296H693.845V561.216H700.817ZM729.535 592.673H719.451C717.542 592.673 716.158 591.926 715.301 590.432L702.685 571.217C702.214 570.498 701.689 569.986 701.108 569.682C700.554 569.378 699.724 569.226 698.618 569.226H693.845V592.673H682.682V532.664H700.983C705.05 532.664 708.536 533.093 711.441 533.95C714.374 534.78 716.767 535.956 718.621 537.478C720.502 539 721.885 540.826 722.771 542.956C723.656 545.059 724.099 547.383 724.099 549.928C724.099 551.948 723.794 553.857 723.186 555.655C722.605 557.453 721.747 559.086 720.613 560.552C719.506 562.018 718.123 563.305 716.463 564.411C714.83 565.518 712.963 566.39 710.86 567.026C711.579 567.441 712.243 567.939 712.852 568.52C713.461 569.073 714.014 569.737 714.512 570.512L729.535 592.673Z" fill="#45239B"/>
<path d="M747.22 541.545V558.187H768.219V566.777H747.22V583.75H773.864V592.673H736.016V532.664H773.864V541.545H747.22Z" fill="#45239B"/>
<path d="M815.712 543.578C815.38 544.159 815.02 544.588 814.633 544.865C814.273 545.114 813.817 545.238 813.263 545.238C812.682 545.238 812.046 545.031 811.354 544.616C810.69 544.173 809.888 543.689 808.947 543.163C808.007 542.638 806.9 542.167 805.627 541.752C804.382 541.31 802.902 541.088 801.187 541.088C799.637 541.088 798.282 541.282 797.12 541.669C795.958 542.029 794.976 542.541 794.173 543.205C793.399 543.869 792.818 544.671 792.43 545.612C792.043 546.525 791.849 547.535 791.849 548.641C791.849 550.052 792.237 551.228 793.011 552.169C793.814 553.11 794.865 553.912 796.165 554.576C797.466 555.24 798.946 555.835 800.606 556.36C802.266 556.886 803.967 557.453 805.71 558.062C807.453 558.643 809.155 559.335 810.815 560.137C812.475 560.912 813.955 561.908 815.255 563.125C816.556 564.315 817.593 565.781 818.368 567.524C819.17 569.267 819.571 571.383 819.571 573.874C819.571 576.585 819.101 579.13 818.16 581.51C817.247 583.861 815.892 585.922 814.093 587.693C812.323 589.436 810.151 590.819 807.578 591.843C805.005 592.839 802.058 593.337 798.738 593.337C796.829 593.337 794.948 593.143 793.094 592.756C791.241 592.396 789.456 591.871 787.741 591.179C786.053 590.487 784.462 589.657 782.968 588.689C781.474 587.721 780.146 586.642 778.984 585.452L782.263 580.098C782.539 579.711 782.899 579.393 783.342 579.144C783.784 578.867 784.255 578.729 784.753 578.729C785.444 578.729 786.191 579.019 786.994 579.6C787.796 580.154 788.751 580.776 789.857 581.468C790.964 582.16 792.25 582.796 793.717 583.377C795.211 583.93 796.995 584.207 799.07 584.207C802.252 584.207 804.714 583.46 806.457 581.966C808.2 580.444 809.072 578.272 809.072 575.45C809.072 573.873 808.671 572.587 807.868 571.591C807.094 570.595 806.056 569.765 804.756 569.101C803.455 568.409 801.975 567.828 800.315 567.358C798.655 566.888 796.968 566.376 795.252 565.822C793.537 565.269 791.849 564.605 790.189 563.83C788.529 563.056 787.049 562.046 785.749 560.801C784.448 559.556 783.397 558.007 782.595 556.153C781.82 554.272 781.433 551.961 781.433 549.222C781.433 547.037 781.862 544.906 782.719 542.831C783.605 540.756 784.877 538.917 786.537 537.312C788.197 535.707 790.245 534.421 792.679 533.452C795.114 532.484 797.908 532 801.062 532C804.604 532 807.868 532.553 810.856 533.66C813.844 534.767 816.39 536.316 818.492 538.308L815.712 543.578Z" fill="#45239B"/>
<path d="M871.224 541.835H853.13V592.673H841.967V541.835H823.873V532.664H871.224V541.835Z" fill="#45239B"/>
<path d="M890.282 541.545V559.307H912.775V568.229H890.282V592.673H879.077V532.664H916.925V541.545H890.282Z" fill="#45239B"/>
<path d="M950.242 583.667C952.4 583.667 954.323 583.308 956.01 582.588C957.726 581.869 959.164 580.859 960.326 579.559C961.488 578.259 962.374 576.682 962.982 574.828C963.619 572.974 963.937 570.899 963.937 568.603V532.664H975.1V568.603C975.1 572.172 974.519 575.478 973.357 578.521C972.223 581.537 970.577 584.152 968.419 586.365C966.288 588.551 963.688 590.266 960.617 591.511C957.546 592.728 954.087 593.337 950.242 593.337C946.368 593.337 942.896 592.728 939.825 591.511C936.754 590.266 934.14 588.551 931.982 586.365C929.851 584.152 928.205 581.537 927.043 578.521C925.909 575.478 925.342 572.172 925.342 568.603V532.664H936.505V568.562C936.505 570.858 936.81 572.933 937.418 574.787C938.055 576.64 938.954 578.231 940.116 579.559C941.305 580.859 942.744 581.869 944.432 582.588C946.147 583.308 948.084 583.667 950.242 583.667Z" fill="#45239B"/>
<path d="M1022.84 583.46V592.673H987.69V532.664H998.854V583.46H1022.84Z" fill="#45239B"/>
<path d="M1089.69 578.521C1090.3 578.521 1090.84 578.757 1091.31 579.227L1095.71 584C1093.27 587.015 1090.27 589.325 1086.7 590.93C1083.16 592.535 1078.9 593.337 1073.92 593.337C1069.47 593.337 1065.45 592.576 1061.89 591.055C1058.34 589.533 1055.32 587.416 1052.8 584.705C1050.28 581.994 1048.34 578.757 1046.99 574.994C1045.66 571.231 1045 567.123 1045 562.668C1045 558.159 1045.71 554.036 1047.15 550.301C1048.59 546.539 1050.61 543.302 1053.21 540.59C1055.84 537.879 1058.97 535.776 1062.59 534.282C1066.22 532.761 1070.23 532 1074.63 532C1079 532 1082.87 532.719 1086.25 534.158C1089.65 535.597 1092.54 537.478 1094.92 539.802L1091.18 544.989C1090.96 545.321 1090.67 545.612 1090.31 545.861C1089.98 546.11 1089.51 546.234 1088.9 546.234C1088.49 546.234 1088.06 546.124 1087.62 545.902C1087.17 545.653 1086.69 545.363 1086.16 545.031C1085.64 544.671 1085.03 544.284 1084.34 543.869C1083.65 543.454 1082.84 543.08 1081.93 542.748C1081.02 542.389 1079.95 542.098 1078.73 541.877C1077.55 541.628 1076.16 541.503 1074.58 541.503C1071.9 541.503 1069.44 541.988 1067.2 542.956C1064.98 543.897 1063.08 545.28 1061.47 547.106C1059.87 548.904 1058.62 551.118 1057.74 553.746C1056.85 556.347 1056.41 559.321 1056.41 562.668C1056.41 566.044 1056.88 569.046 1057.82 571.674C1058.79 574.302 1060.09 576.516 1061.72 578.314C1063.35 580.112 1065.28 581.496 1067.49 582.464C1069.7 583.405 1072.08 583.875 1074.63 583.875C1076.15 583.875 1077.52 583.792 1078.73 583.626C1079.98 583.46 1081.11 583.197 1082.14 582.837C1083.19 582.478 1084.17 582.021 1085.08 581.468C1086.03 580.887 1086.95 580.181 1087.86 579.351C1088.14 579.102 1088.43 578.909 1088.74 578.77C1089.04 578.604 1089.36 578.521 1089.69 578.521Z" fill="#45239B"/>
<path d="M1138.51 583.46V592.673H1103.36V532.664H1114.52V583.46H1138.51Z" fill="#45239B"/>
<path d="M1157.68 592.673H1146.48V532.664H1157.68V592.673Z" fill="#45239B"/>
<path d="M1182.32 541.545V558.187H1203.32V566.777H1182.32V583.75H1208.97V592.673H1171.12V532.664H1208.97V541.545H1182.32Z" fill="#45239B"/>
<path d="M1269.45 532.664V592.673H1263.72C1262.83 592.673 1262.09 592.535 1261.48 592.258C1260.9 591.954 1260.33 591.456 1259.78 590.764L1228.44 550.758C1228.61 552.584 1228.69 554.272 1228.69 555.821V592.673H1218.86V532.664H1224.71C1225.18 532.664 1225.58 532.692 1225.91 532.747C1226.27 532.775 1226.58 532.858 1226.83 532.996C1227.1 533.107 1227.37 533.286 1227.61 533.535C1227.86 533.757 1228.14 534.061 1228.44 534.448L1259.9 574.62C1259.82 573.652 1259.75 572.698 1259.69 571.757C1259.64 570.816 1259.61 569.945 1259.61 569.142V532.664H1269.45Z" fill="#45239B"/>
<path d="M1324.73 541.835H1306.63V592.673H1295.47V541.835H1277.37V532.664H1324.73V541.835Z" fill="#45239B"/>
<path d="M1399.72 562.585V586.863C1396.67 589.104 1393.42 590.75 1389.96 591.802C1386.53 592.825 1382.85 593.337 1378.92 593.337C1374.03 593.337 1369.59 592.576 1365.6 591.055C1361.65 589.533 1358.26 587.416 1355.44 584.705C1352.64 581.994 1350.48 578.757 1348.96 574.994C1347.44 571.231 1346.68 567.123 1346.68 562.668C1346.68 558.159 1347.41 554.023 1348.88 550.26C1350.34 546.497 1352.42 543.26 1355.1 540.549C1357.81 537.838 1361.09 535.735 1364.94 534.241C1368.78 532.747 1373.1 532 1377.89 532C1380.32 532 1382.59 532.194 1384.69 532.581C1386.82 532.968 1388.79 533.508 1390.59 534.199C1392.41 534.863 1394.07 535.68 1395.57 536.648C1397.06 537.616 1398.43 538.681 1399.67 539.844L1396.48 544.906C1395.98 545.709 1395.33 546.207 1394.53 546.401C1393.73 546.566 1392.85 546.359 1391.91 545.778C1391 545.252 1390.09 544.727 1389.17 544.201C1388.26 543.675 1387.24 543.219 1386.1 542.831C1385 542.444 1383.74 542.126 1382.33 541.877C1380.94 541.628 1379.34 541.503 1377.51 541.503C1374.55 541.503 1371.87 542.001 1369.46 542.997C1367.08 543.993 1365.05 545.418 1363.36 547.272C1361.67 549.126 1360.37 551.353 1359.46 553.953C1358.55 556.554 1358.09 559.459 1358.09 562.668C1358.09 566.099 1358.58 569.17 1359.54 571.882C1360.54 574.565 1361.92 576.848 1363.69 578.729C1365.49 580.583 1367.65 582.007 1370.17 583.003C1372.69 583.972 1375.49 584.456 1378.59 584.456C1380.81 584.456 1382.78 584.221 1384.53 583.75C1386.27 583.28 1387.97 582.644 1389.63 581.842V570.969H1382.08C1381.36 570.969 1380.79 570.775 1380.38 570.388C1379.99 569.972 1379.8 569.474 1379.8 568.894V562.585H1399.72Z" fill="#45239B"/>
<path d="M1421.68 541.545V558.187H1442.68V566.777H1421.68V583.75H1448.32V592.673H1410.47V532.664H1448.32V541.545H1421.68Z" fill="#45239B"/>
<path d="M1508.8 532.664V592.673H1503.07C1502.19 592.673 1501.44 592.535 1500.83 592.258C1500.25 591.954 1499.69 591.456 1499.13 590.764L1467.8 550.758C1467.97 552.584 1468.05 554.272 1468.05 555.821V592.673H1458.21V532.664H1464.06C1464.53 532.664 1464.94 532.692 1465.27 532.747C1465.63 532.775 1465.93 532.858 1466.18 532.996C1466.46 533.107 1466.72 533.286 1466.97 533.535C1467.22 533.757 1467.49 534.061 1467.8 534.448L1499.26 574.62C1499.17 573.652 1499.1 572.698 1499.05 571.757C1498.99 570.816 1498.97 569.945 1498.97 569.142V532.664H1508.8Z" fill="#45239B"/>
<path d="M1533.37 541.545V558.187H1554.37V566.777H1533.37V583.75H1560.01V592.673H1522.16V532.664H1560.01V541.545H1533.37Z" fill="#45239B"/>
<path d="M1588.04 561.216C1590.14 561.216 1591.97 560.953 1593.52 560.428C1595.1 559.902 1596.38 559.182 1597.38 558.269C1598.4 557.329 1599.16 556.222 1599.66 554.949C1600.16 553.677 1600.41 552.28 1600.41 550.758C1600.41 547.715 1599.4 545.377 1597.38 543.744C1595.39 542.112 1592.33 541.296 1588.21 541.296H1581.07V561.216H1588.04ZM1616.76 592.673H1606.68C1604.77 592.673 1603.38 591.926 1602.53 590.432L1589.91 571.217C1589.44 570.498 1588.91 569.986 1588.33 569.682C1587.78 569.378 1586.95 569.226 1585.84 569.226H1581.07V592.673H1569.91V532.664H1588.21C1592.27 532.664 1595.76 533.093 1598.67 533.95C1601.6 534.78 1603.99 535.956 1605.85 537.478C1607.73 539 1609.11 540.826 1610 542.956C1610.88 545.059 1611.32 547.383 1611.32 549.928C1611.32 551.948 1611.02 553.857 1610.41 555.655C1609.83 557.453 1608.97 559.086 1607.84 560.552C1606.73 562.018 1605.35 563.305 1603.69 564.411C1602.05 565.518 1600.19 566.39 1598.08 567.026C1598.8 567.441 1599.47 567.939 1600.08 568.52C1600.69 569.073 1601.24 569.737 1601.74 570.512L1616.76 592.673Z" fill="#45239B"/>
<path d="M1654.95 570.014L1647.64 550.052C1647.28 549.167 1646.91 548.116 1646.52 546.898C1646.13 545.681 1645.75 544.367 1645.36 542.956C1645 544.367 1644.63 545.695 1644.24 546.94C1643.85 548.157 1643.48 549.222 1643.12 550.135L1635.86 570.014H1654.95ZM1674.66 592.673H1666.03C1665.06 592.673 1664.27 592.438 1663.66 591.968C1663.05 591.47 1662.6 590.861 1662.29 590.141L1657.81 577.899H1632.95L1628.47 590.141C1628.25 590.778 1627.82 591.359 1627.18 591.885C1626.55 592.41 1625.76 592.673 1624.82 592.673H1616.1L1639.72 532.664H1651.09L1674.66 592.673Z" fill="#45239B"/>
<path d="M1716.95 541.835H1698.86V592.673H1687.69V541.835H1669.6V532.664H1716.95V541.835Z" fill="#45239B"/>
<path d="M1780 562.668C1780 567.068 1779.27 571.148 1777.8 574.911C1776.37 578.646 1774.32 581.883 1771.66 584.622C1769.01 587.361 1765.81 589.505 1762.08 591.055C1758.34 592.576 1754.19 593.337 1749.63 593.337C1745.09 593.337 1740.95 592.576 1737.22 591.055C1733.48 589.505 1730.27 587.361 1727.59 584.622C1724.93 581.883 1722.87 578.646 1721.41 574.911C1719.94 571.148 1719.21 567.068 1719.21 562.668C1719.21 558.27 1719.94 554.202 1721.41 550.467C1722.87 546.705 1724.93 543.454 1727.59 540.715C1730.27 537.976 1733.48 535.846 1737.22 534.324C1740.95 532.775 1745.09 532 1749.63 532C1752.67 532 1755.53 532.36 1758.22 533.079C1760.9 533.771 1763.36 534.767 1765.6 536.067C1767.84 537.34 1769.85 538.903 1771.62 540.756C1773.42 542.582 1774.94 544.63 1776.19 546.898C1777.43 549.167 1778.37 551.629 1779.01 554.285C1779.67 556.941 1780 559.736 1780 562.668ZM1768.59 562.668C1768.59 559.376 1768.15 556.43 1767.26 553.829C1766.38 551.201 1765.12 548.973 1763.49 547.147C1761.85 545.321 1759.86 543.924 1757.51 542.956C1755.19 541.988 1752.56 541.503 1749.63 541.503C1746.69 541.503 1744.05 541.988 1741.7 542.956C1739.38 543.924 1737.38 545.321 1735.72 547.147C1734.09 548.973 1732.83 551.201 1731.95 553.829C1731.06 556.43 1730.62 559.376 1730.62 562.668C1730.62 565.961 1731.06 568.921 1731.95 571.549C1732.83 574.15 1734.09 576.364 1735.72 578.19C1737.38 579.988 1739.38 581.371 1741.7 582.339C1744.05 583.308 1746.69 583.792 1749.63 583.792C1752.56 583.792 1755.19 583.308 1757.51 582.339C1759.86 581.371 1761.85 579.988 1763.49 578.19C1765.12 576.364 1766.38 574.15 1767.26 571.549C1768.15 568.921 1768.59 565.961 1768.59 562.668Z" fill="#45239B"/>
<path d="M1807.94 561.216C1810.05 561.216 1811.87 560.953 1813.42 560.428C1815 559.902 1816.28 559.182 1817.28 558.269C1818.3 557.329 1819.06 556.222 1819.56 554.949C1820.06 553.677 1820.31 552.28 1820.31 550.758C1820.31 547.715 1819.3 545.377 1817.28 543.744C1815.29 542.112 1812.23 541.296 1808.11 541.296H1800.97V561.216H1807.94ZM1836.66 592.673H1826.58C1824.67 592.673 1823.28 591.926 1822.43 590.432L1809.81 571.217C1809.34 570.498 1808.81 569.986 1808.23 569.682C1807.68 569.378 1806.85 569.226 1805.74 569.226H1800.97V592.673H1789.81V532.664H1808.11C1812.18 532.664 1815.66 533.093 1818.57 533.95C1821.5 534.78 1823.89 535.956 1825.75 537.478C1827.63 539 1829.01 540.826 1829.9 542.956C1830.78 545.059 1831.22 547.383 1831.22 549.928C1831.22 551.948 1830.92 553.857 1830.31 555.655C1829.73 557.453 1828.87 559.086 1827.74 560.552C1826.63 562.018 1825.25 563.305 1823.59 564.411C1821.96 565.518 1820.09 566.39 1817.99 567.026C1818.71 567.441 1819.37 567.939 1819.98 568.52C1820.59 569.073 1821.14 569.737 1821.64 570.512L1836.66 592.673Z" fill="#45239B"/>
<defs>
<radialGradient id="paint0_radial" cx="0" cy="0" r="1" gradientUnits="userSpaceOnUse" gradientTransform="translate(368.479 347.298) scale(300.672)">
<stop stop-color="#9E60FC"/>
<stop offset="1" stop-color="#45239B"/>
</radialGradient>
<radialGradient id="paint1_radial" cx="0" cy="0" r="1" gradientUnits="userSpaceOnUse" gradientTransform="translate(368.479 347.298) scale(300.672)">
<stop stop-color="#9E60FC"/>
<stop offset="1" stop-color="#45239B"/>
</radialGradient>
<radialGradient id="paint2_radial" cx="0" cy="0" r="1" gradientUnits="userSpaceOnUse" gradientTransform="translate(368.479 347.298) scale(300.672)">
<stop stop-color="#9E60FC"/>
<stop offset="1" stop-color="#45239B"/>
</radialGradient>
<radialGradient id="paint3_radial" cx="0" cy="0" r="1" gradientUnits="userSpaceOnUse" gradientTransform="translate(368.479 347.298) scale(300.673)">
<stop stop-color="#9E60FC"/>
<stop offset="1" stop-color="#45239B"/>
</radialGradient>
<radialGradient id="paint4_radial" cx="0" cy="0" r="1" gradientUnits="userSpaceOnUse" gradientTransform="translate(368.479 347.298) scale(300.672)">
<stop stop-color="#9E60FC"/>
<stop offset="1" stop-color="#45239B"/>
</radialGradient>
<linearGradient id="paint5_linear" x1="223.43" y1="267.847" x2="251.037" y2="327.741" gradientUnits="userSpaceOnUse">
<stop stop-color="#9E60FC"/>
<stop offset="0.928" stop-color="#45239B"/>
</linearGradient>
<linearGradient id="paint6_linear" x1="374.895" y1="285.772" x2="451.481" y2="194.634" gradientUnits="userSpaceOnUse">
<stop offset="0.5056" stop-color="#FFBF4F"/>
<stop offset="1" stop-color="#F58E54"/>
</linearGradient>
<linearGradient id="paint7_linear" x1="391.275" y1="330.976" x2="339.196" y2="382.289" gradientUnits="userSpaceOnUse">
<stop offset="0.1847" stop-color="#FFBF4F"/>
<stop offset="1" stop-color="#F58E54"/>
</linearGradient>
<linearGradient id="paint8_linear" x1="481.648" y1="410.995" x2="563.232" y2="410.995" gradientUnits="userSpaceOnUse">
<stop offset="0.2361" stop-color="#FFBF4F"/>
<stop offset="1" stop-color="#F58E54"/>
</linearGradient>
<linearGradient id="paint9_linear" x1="457.541" y1="506.683" x2="376.724" y2="599.546" gradientUnits="userSpaceOnUse">
<stop offset="0.1026" stop-color="#FFBF4F"/>
<stop offset="0.893" stop-color="#F58E54"/>
</linearGradient>
<linearGradient id="paint10_linear" x1="182.085" y1="395.529" x2="274.395" y2="395.529" gradientUnits="userSpaceOnUse">
<stop offset="0.1847" stop-color="#FFBF4F"/>
<stop offset="1" stop-color="#F58E54"/>
</linearGradient>
</defs>
</svg>
