<svg width="1080" height="1080" viewBox="0 0 1080 1080" fill="none" xmlns="http://www.w3.org/2000/svg">
<rect width="1080" height="1080"/>
<path d="M127.423 563.417C132.835 568.078 140.804 574.543 152.983 576.949C168.168 579.956 180.798 574.844 186.06 572.438C194.63 582.812 221.694 612.582 267.251 622.055C300.63 629.121 327.693 621.754 336.414 619.047C344.833 616.491 368.138 608.372 389.789 588.225C419.86 560.259 442.713 513.048 434.143 461.176C425.122 406.297 385.88 375.926 377.009 369.461C379.715 367.055 383.474 363.447 387.534 358.936C390.391 355.628 403.772 340.292 413.094 315.334C415.8 308.117 420.912 293.984 422.115 274.738C424.22 241.21 412.643 215.8 407.08 204.072C401.817 192.946 396.254 184.226 392.044 178.512C377.46 182.271 357.012 188.285 333.407 198.058C304.088 210.237 250.412 236.248 198.089 286.767C180.798 303.456 164.56 319.393 148.472 345.404C128.776 377.279 119.755 407.5 115.394 428.099C110.282 432.76 102.314 441.029 97.3519 453.659C91.3377 468.844 92.8413 482.076 94.3448 494.254C95.8483 505.681 100.209 540.262 127.423 563.417Z" fill="url(#paint0_radial)"/>
<path d="M770.935 267.221C704.93 211.74 636.82 188.586 595.021 178.512C514.131 158.966 446.322 167.386 409.335 174.753C426.024 196.705 432.64 217.303 435.647 229.632C448.277 282.406 426.926 325.708 420.612 337.887C413.094 352.471 404.824 363.296 398.81 370.213C407.38 377.58 419.108 389.157 429.633 405.546C434.895 413.815 445.42 430.504 450.682 455.162C456.095 480.422 453.238 501.622 450.682 513.8C446.472 533.496 438.955 548.682 432.64 558.906C442.563 557.252 457.147 555.448 474.739 555.899C528.265 557.252 567.958 577.7 584.497 587.473C595.172 593.788 619.529 609.275 643.135 637.09C665.387 663.101 676.814 688.21 682.226 701.742C688.241 716.777 700.118 751.208 698.765 794.961C698.314 807.591 694.555 886.827 632.61 949.825C627.197 955.388 604.043 978.242 566.454 996.434C526.46 1015.83 489.924 1020.19 467.973 1021.24C483.61 1022.3 503.005 1022.75 525.107 1021.24C537.286 1020.34 562.094 1018.09 592.766 1010.72C613.665 1005.76 654.862 994.029 701.772 967.867C738.459 947.419 765.071 925.618 781.46 910.733C796.946 896.75 820.1 873.746 843.104 841.57C860.696 817.063 871.972 795.863 877.686 784.436C889.564 760.68 897.683 738.879 903.246 721.288C907.155 708.959 913.771 685.504 918.281 655.132C919.183 648.968 922.341 626.264 922.792 599.502C923.844 533.947 907.606 479.369 903.246 465.687C867.311 350.817 788.977 282.406 770.935 267.221Z" fill="url(#paint1_radial)"/>
<path d="M982.933 304.809C970.905 262.86 935.121 230.835 890.466 221.363C891.518 200.614 889.864 164.98 867.161 134.91C828.069 83.0378 741.766 67.2507 658.17 104.839C643.886 75.2195 625.092 65.7472 617.574 62.7401C575.776 45.7502 512.628 74.9187 473.235 142.427C520.145 140.924 594.27 145.134 674.709 180.016C727.633 203.02 764.77 231.136 782.963 246.171C803.261 263.011 844.458 299.998 880.693 358.936C900.539 391.262 913.169 420.882 921.288 443.134C931.813 437.721 950.156 426.445 964.891 405.546C968.499 400.283 997.968 357.282 982.933 304.809Z" fill="url(#paint2_radial)"/>
<path d="M540.143 794.209C547.359 799.622 571.115 816.161 604.794 815.259C648.848 814.056 675.611 784.286 679.971 779.174C679.52 767.446 677.866 750.607 672.453 731.061C651.103 654.531 592.315 614.838 583.745 609.275C575.325 603.711 526.761 572.889 460.455 574.693C448.126 574.994 437.752 576.347 430.385 577.7C442.563 580.106 460.455 585.068 479.249 596.495C533.677 629.422 547.811 686.406 549.915 695.728C558.937 734.519 550.216 766.093 548.412 772.408C545.706 781.429 542.548 788.947 540.143 794.209Z" fill="url(#paint3_radial)"/>
<path d="M301.832 906.222C283.038 856.155 293.563 812.402 297.322 797.968C300.93 783.985 305.591 772.709 309.35 764.89C304.99 761.883 239.436 717.83 173.28 747.6C143.21 761.131 126.069 784.135 118.401 796.464C144.112 843.976 173.581 877.505 195.081 898.705C256.275 958.846 322.28 987.413 363.477 1000.94C396.405 1011.77 425.723 1016.88 448.126 1019.59C430.535 1017.33 404.373 1011.32 377.009 994.931C364.981 987.714 322.431 961.252 301.832 906.222Z" fill="url(#paint4_radial)"/>
<path d="M300.329 558.154C342.263 558.154 376.257 524.16 376.257 482.226C376.257 440.292 342.263 406.297 300.329 406.297C258.395 406.297 224.4 440.292 224.4 482.226C224.4 524.16 258.395 558.154 300.329 558.154Z" fill="white" stroke="white" stroke-miterlimit="10" stroke-linejoin="round"/>
<path d="M300.329 525.377C324.161 525.377 343.48 506.058 343.48 482.226C343.48 458.394 324.161 439.075 300.329 439.075C276.497 439.075 257.177 458.394 257.177 482.226C257.177 506.058 276.497 525.377 300.329 525.377Z" fill="url(#paint5_linear)"/>
<path d="M323.634 460.425C322.28 458.921 311.605 447.344 295.668 448.547C286.045 449.299 274.318 454.561 269.958 464.935C269.206 466.589 265.447 476.512 271.01 482.978C274.769 487.338 280.482 487.488 281.535 487.488C286.797 487.488 291.759 484.782 294.315 480.873C297.773 475.31 294.315 470.949 296.57 466.439C298.525 462.53 304.689 458.921 323.634 460.425Z" fill="white"/>
<path d="M516.086 310.071C543.3 345.855 616.221 282.557 698.014 319.092C753.795 344.051 772.589 396.825 812.282 389.759C831.227 386.3 844.458 371.265 852.426 359.538C818.447 308.267 782.512 276.843 770.935 267.221C704.93 211.74 636.82 188.586 595.022 178.512C566.154 171.596 539.09 168.138 514.432 166.935C514.131 170.994 513.68 177.46 513.079 185.278C508.418 259.553 506.012 296.84 516.086 310.071Z" fill="url(#paint6_linear)"/>
<path d="M649.9 553.644C646.893 546.577 634.113 519.664 606.298 504.027C583.595 491.247 570.815 496.961 541.646 488.992C494.285 475.911 489.774 446.592 461.959 443.886C457.298 443.435 452.486 443.435 447.675 443.735C448.728 447.344 449.78 451.103 450.682 455.162C456.095 480.422 453.238 501.621 450.682 513.8C446.472 533.496 438.955 548.682 432.64 558.906C442.563 557.252 457.147 555.448 474.739 555.899C528.264 557.252 567.958 577.7 584.497 587.473C595.172 593.788 619.529 609.274 643.134 637.09C645.239 639.495 647.194 641.901 648.998 644.307C660.124 614.386 662.079 581.76 649.9 553.644Z" fill="url(#paint7_linear)"/>
<path d="M877.686 784.436C889.564 760.68 897.683 738.879 903.246 721.288C907.155 708.959 913.77 685.504 918.281 655.132C919.183 648.968 922.341 626.264 922.792 599.502C923.844 533.948 907.606 479.369 903.246 465.687C903.095 465.236 902.945 464.785 902.795 464.334C897.081 485.083 887.91 505.38 873.927 523.573C830.475 579.956 766.424 584.015 762.665 624.31C759.057 664.153 819.499 678.888 840.849 737.075C856.787 780.828 842.954 827.888 824.01 866.228C830.324 858.711 836.639 850.441 843.104 841.57C860.545 816.912 871.822 795.863 877.686 784.436Z" fill="url(#paint8_linear)"/>
<path d="M735.602 929.527C733.647 919.604 726.731 907.124 716.056 902.463C694.856 893.142 671.251 919.303 637.12 945.164C635.617 946.667 634.113 948.321 632.61 949.825C627.197 955.388 604.043 978.242 566.454 996.434C526.46 1015.83 489.924 1020.19 467.973 1021.24C483.61 1022.3 503.005 1022.75 525.107 1021.24C537.286 1020.34 562.094 1018.09 592.766 1010.72C613.665 1005.76 654.862 994.029 701.772 967.867C713.35 961.402 724.025 954.786 733.647 948.321C735.903 942.608 736.955 936.594 735.602 929.527Z" fill="url(#paint9_linear)"/>
<path d="M226.505 567.927C217.033 575.445 209.515 584.917 205.456 595.292C204.854 596.645 204.403 597.848 204.103 599.201C203.652 600.404 203.201 602.208 202.75 603.711C201.998 606.719 201.246 609.425 200.795 612.131C199.893 617.544 200.194 622.656 201.697 627.167C203.201 631.677 206.208 635.737 210.418 639.195C217.183 644.457 224.851 646.562 226.505 647.013C232.67 648.517 237.331 648.366 244.999 648.066C253.419 647.765 257.328 646.562 268.905 646.261C271.01 646.261 272.965 646.261 274.769 646.261H280.633C284.542 646.261 288.601 646.412 292.661 646.863C300.78 647.464 309.049 648.667 316.868 651.073C324.836 653.478 332.354 657.388 338.519 662.349C344.533 667.461 349.344 673.475 352.201 680.241C353.704 683.699 354.606 687.158 354.907 690.766C355.358 694.375 355.057 697.833 354.456 701.291C353.855 704.749 352.802 708.207 351.299 711.364C349.645 714.672 347.389 717.679 344.382 720.235C343.631 720.837 342.879 721.438 341.977 722.04C341.225 722.641 340.323 723.092 339.421 723.543C337.616 724.445 335.662 725.047 333.707 725.498C329.798 726.4 325.588 726.55 321.679 725.949C316.116 725.197 312.207 723.092 310.703 722.19C305.291 719.033 302.584 715.123 302.735 714.973C302.885 714.823 305.591 718.732 311.154 721.438C312.507 722.04 316.417 723.844 321.829 724.145C325.588 724.295 329.197 723.844 332.655 722.791C334.309 722.19 335.963 721.589 337.466 720.686C338.218 720.235 338.97 719.784 339.571 719.333C340.172 718.882 340.924 718.281 341.375 717.679C346.036 713.169 347.84 706.854 348.292 700.539C348.743 694.224 347.54 688.21 344.533 682.797C341.526 677.385 337.015 672.573 331.602 668.815C326.19 665.206 319.875 662.5 313.109 661.146C299.577 658.139 284.692 659.041 269.657 660.395C258.982 661.297 258.982 662.65 247.856 663.702C236.128 664.905 229.512 665.507 220.642 664.003C208.613 661.898 200.043 656.937 195.833 654.23C192.074 651.674 188.466 648.817 185.459 645.359C182.452 642.052 179.896 638.293 178.092 634.233C174.333 626.264 173.431 617.845 173.731 610.177C173.882 606.267 174.333 602.509 174.934 599.051C175.235 597.246 175.385 595.743 175.836 593.788C176.137 591.834 176.738 590.029 177.189 588.075C181.55 573.039 190.421 559.207 202.449 547.78L202.599 547.63C208.764 541.766 219.288 541.315 226.054 546.577C232.971 551.84 233.422 560.861 227.407 566.725C227.257 567.326 226.806 567.627 226.505 567.927Z" fill="url(#paint10_linear)"/>
<defs>
<radialGradient id="paint0_radial" cx="0" cy="0" r="1" gradientUnits="userSpaceOnUse" gradientTransform="translate(540.047 540.065) scale(590.889)">
<stop stop-color="#9E60FC"/>
<stop offset="1" stop-color="#45239B"/>
</radialGradient>
<radialGradient id="paint1_radial" cx="0" cy="0" r="1" gradientUnits="userSpaceOnUse" gradientTransform="translate(540.047 540.065) scale(590.889)">
<stop stop-color="#9E60FC"/>
<stop offset="1" stop-color="#45239B"/>
</radialGradient>
<radialGradient id="paint2_radial" cx="0" cy="0" r="1" gradientUnits="userSpaceOnUse" gradientTransform="translate(540.047 540.065) scale(590.889)">
<stop stop-color="#9E60FC"/>
<stop offset="1" stop-color="#45239B"/>
</radialGradient>
<radialGradient id="paint3_radial" cx="0" cy="0" r="1" gradientUnits="userSpaceOnUse" gradientTransform="translate(540.047 540.065) scale(590.889)">
<stop stop-color="#9E60FC"/>
<stop offset="1" stop-color="#45239B"/>
</radialGradient>
<radialGradient id="paint4_radial" cx="0" cy="0" r="1" gradientUnits="userSpaceOnUse" gradientTransform="translate(540.047 540.065) scale(590.889)">
<stop stop-color="#9E60FC"/>
<stop offset="1" stop-color="#45239B"/>
</radialGradient>
<linearGradient id="paint5_linear" x1="254.993" y1="383.927" x2="309.247" y2="501.632" gradientUnits="userSpaceOnUse">
<stop stop-color="#9E60FC"/>
<stop offset="0.928" stop-color="#45239B"/>
</linearGradient>
<linearGradient id="paint6_linear" x1="552.655" y1="419.152" x2="703.165" y2="240.046" gradientUnits="userSpaceOnUse">
<stop offset="0.5056" stop-color="#FFBF4F"/>
<stop offset="1" stop-color="#F58E54"/>
</linearGradient>
<linearGradient id="paint7_linear" x1="584.846" y1="507.989" x2="482.499" y2="608.831" gradientUnits="userSpaceOnUse">
<stop offset="0.1847" stop-color="#FFBF4F"/>
<stop offset="1" stop-color="#F58E54"/>
</linearGradient>
<linearGradient id="paint8_linear" x1="762.449" y1="665.245" x2="922.78" y2="665.245" gradientUnits="userSpaceOnUse">
<stop offset="0.2361" stop-color="#FFBF4F"/>
<stop offset="1" stop-color="#F58E54"/>
</linearGradient>
<linearGradient id="paint9_linear" x1="715.073" y1="853.292" x2="556.251" y2="1035.79" gradientUnits="userSpaceOnUse">
<stop offset="0.1026" stop-color="#FFBF4F"/>
<stop offset="0.893" stop-color="#F58E54"/>
</linearGradient>
<linearGradient id="paint10_linear" x1="173.741" y1="634.85" x2="355.15" y2="634.85" gradientUnits="userSpaceOnUse">
<stop offset="0.1847" stop-color="#FFBF4F"/>
<stop offset="1" stop-color="#F58E54"/>
</linearGradient>
</defs>
</svg>
